<svg width="45" height="20" viewBox="0 0 45 20" fill="none" xmlns="http://www.w3.org/2000/svg"><path d="M5.182 19.247c-.835 0-1.58-.145-2.233-.434a3.595 3.595 0 01-1.551-1.304c-.375-.58-.563-1.302-.563-2.165 0-.727.134-1.338.4-1.833.268-.494.631-.892 1.092-1.193a5.29 5.29 0 011.568-.682c.59-.153 1.21-.261 1.858-.323a46.9 46.9 0 001.84-.222c.467-.074.805-.182 1.015-.324.21-.142.315-.352.315-.63v-.052c0-.54-.17-.957-.511-1.253-.335-.295-.813-.443-1.432-.443-.653 0-1.173.145-1.56.435a2 2 0 00-.767 1.074l-3.358-.273a4.563 4.563 0 011.006-2.063c.5-.585 1.145-1.034 1.935-1.346.795-.318 1.716-.477 2.761-.477.727 0 1.423.085 2.088.255.67.17 1.264.435 1.781.793.523.358.935.818 1.236 1.38.301.557.452 1.225.452 2.004V19H9.111v-1.815h-.102c-.21.409-.492.77-.844 1.082a3.905 3.905 0 01-1.27.724c-.494.17-1.065.256-1.713.256zm1.04-2.506c.534 0 1.005-.105 1.414-.315.41-.216.73-.505.963-.87.233-.363.35-.775.35-1.235v-1.39c-.114.075-.27.143-.469.205-.193.057-.412.111-.656.162a32.85 32.85 0 01-.733.128l-.665.094a4.49 4.49 0 00-1.116.298 1.785 1.785 0 00-.742.554c-.176.227-.264.511-.264.852 0 .495.179.873.537 1.134.364.256.824.383 1.38.383zM15.439 19V1.545h6.989c1.284 0 2.355.19 3.213.571.858.381 1.503.91 1.934 1.586.432.67.648 1.443.648 2.318 0 .682-.136 1.281-.41 1.798A3.53 3.53 0 0126.69 9.08a4.611 4.611 0 01-1.62.69v.17a3.91 3.91 0 011.867.563c.585.346 1.06.832 1.423 1.457.364.62.546 1.358.546 2.216 0 .926-.23 1.753-.69 2.48-.455.722-1.128 1.293-2.02 1.713-.892.42-1.992.631-3.299.631H15.44zm3.69-3.017h3.009c1.028 0 1.778-.196 2.25-.588.471-.398.707-.926.707-1.585 0-.483-.116-.91-.35-1.279a2.374 2.374 0 00-.996-.87c-.427-.21-.935-.314-1.526-.314h-3.094v4.636zm0-7.134h2.736c.506 0 .955-.088 1.347-.264a2.24 2.24 0 00.937-.767c.233-.33.35-.724.35-1.184 0-.631-.225-1.14-.674-1.526-.443-.386-1.074-.58-1.892-.58H19.13V8.85zM31.238 19V5.91h3.63V19h-3.63zm1.824-14.778c-.54 0-1.003-.18-1.39-.537-.38-.364-.57-.799-.57-1.304 0-.5.19-.93.57-1.287.387-.364.85-.546 1.39-.546.54 0 1 .182 1.38.546.387.358.58.787.58 1.287 0 .505-.193.94-.58 1.304-.38.358-.84.537-1.38.537zM44.74 5.909v2.727h-7.884V5.91h7.884zm-6.094-3.136h3.631v12.204c0 .335.051.597.153.784.103.182.245.31.426.384.188.074.404.11.648.11.17 0 .341-.014.512-.042.17-.034.3-.06.392-.077l.57 2.702c-.181.057-.437.122-.766.196-.33.08-.73.128-1.202.145-.875.034-1.642-.082-2.301-.35a3.212 3.212 0 01-1.526-1.244c-.363-.562-.542-1.273-.537-2.13V2.772z" fill="#292D32"/></svg>