<svg width="43" height="18" viewBox="0 0 43 18" fill="none" xmlns="http://www.w3.org/2000/svg"><path d="M7.857 2.32c-.504.609-1.31 1.088-2.117 1.02-.1-.822.294-1.696.756-2.235C7 .48 7.882.035 8.596 0c.084.856-.244 1.696-.74 2.32zm.73 1.182c-1.167-.068-2.166.677-2.72.677-.564 0-1.412-.642-2.336-.625-1.2.017-2.318.71-2.931 1.815-1.26 2.21-.328 5.48.89 7.279.597.89 1.31 1.867 2.251 1.832.89-.034 1.243-.59 2.318-.59 1.084 0 1.395.59 2.335.573.975-.017 1.588-.89 2.184-1.78.68-1.011.958-1.996.975-2.047-.017-.018-1.882-.745-1.899-2.938-.016-1.832 1.47-2.706 1.537-2.757-.84-1.267-2.15-1.404-2.603-1.439zm6.745-2.483v13.35h2.033V9.805h2.814c2.57 0 4.376-1.798 4.376-4.402 0-2.603-1.772-4.384-4.309-4.384h-4.914zm2.033 1.747h2.344c1.763 0 2.771.959 2.771 2.646 0 1.687-1.008 2.655-2.78 2.655h-2.335V2.766zm10.902 11.706c1.277 0 2.462-.66 2.999-1.704h.042v1.601h1.882V7.724c0-1.927-1.512-3.168-3.839-3.168-2.159 0-3.755 1.258-3.813 2.988h1.83c.152-.822.9-1.361 1.924-1.361 1.243 0 1.94.59 1.94 1.678v.737l-2.536.154c-2.36.145-3.637 1.13-3.637 2.843 0 1.73 1.319 2.877 3.208 2.877zm.546-1.584c-1.083 0-1.772-.531-1.772-1.345 0-.839.664-1.327 1.932-1.404l2.26-.146v.754c0 1.25-1.042 2.14-2.42 2.14zM35.701 18c1.982 0 2.914-.77 3.73-3.108L43 4.684h-2.066l-2.394 7.887h-.042l-2.394-7.887H33.98l3.444 9.72-.185.59c-.31 1.002-.815 1.387-1.713 1.387-.16 0-.47-.017-.597-.034v1.602c.118.034.622.051.773.051z" fill="#000"/></svg>