<svg width="56" height="37" viewBox="0 0 56 37" fill="none" xmlns="http://www.w3.org/2000/svg"><path d="M26.833 18.306v4.969h-1.59V11.003h4.218a3.846 3.846 0 012.732 1.062c.366.326.657.726.853 1.173.197.446.295.93.288 1.417.01.49-.086.977-.283 1.426a3.4 3.4 0 01-.858 1.179c-.738.697-1.648 1.045-2.732 1.045h-2.628zm0-5.792v4.284H29.5a2.118 2.118 0 001.573-.635 2.091 2.091 0 00.64-1.5 2.075 2.075 0 00-.64-1.5 2.075 2.075 0 00-1.574-.65h-2.667zm10.166 2.09c1.176 0 2.104.312 2.785.934.68.623 1.02 1.477 1.02 2.562v5.175h-1.522V22.11h-.07c-.658.96-1.534 1.44-2.628 1.44-.933 0-1.714-.275-2.342-.823a2.628 2.628 0 01-.943-2.057c0-.869.332-1.56.994-2.073.663-.513 1.548-.77 2.654-.771.945 0 1.723.171 2.334.514v-.36a1.782 1.782 0 00-.657-1.396 2.264 2.264 0 00-1.536-.575c-.888 0-1.591.372-2.109 1.115l-1.401-.875c.77-1.096 1.911-1.645 3.421-1.645zm-2.058 6.1a1.249 1.249 0 00.528 1.029c.352.274.788.42 1.236.411a2.548 2.548 0 001.79-.736c.526-.492.79-1.069.79-1.73-.496-.392-1.188-.588-2.075-.588-.646 0-1.185.154-1.616.463-.436.313-.653.694-.653 1.152zm14.596-5.826l-5.311 12.098h-1.642l1.97-4.233-3.492-7.865h1.73l2.524 6.032h.034l2.455-6.032h1.732z" fill="#5F6368"/><path d="M20.405 17.234c0-.48-.04-.96-.122-1.433h-6.709v2.715h3.843a3.249 3.249 0 01-1.421 2.143v1.762h2.293c1.343-1.227 2.116-3.041 2.116-5.187z" fill="#4285F4"/><path d="M13.575 24.125c1.92 0 3.536-.625 4.714-1.702l-2.293-1.763c-.638.43-1.46.674-2.421.674-1.856 0-3.43-1.24-3.994-2.91H7.22v1.816a7.074 7.074 0 002.622 2.835 7.162 7.162 0 003.734 1.05z" fill="#34A853"/><path d="M9.58 18.423a4.188 4.188 0 010-2.698v-1.817H7.219a6.999 6.999 0 000 6.332l2.363-1.817z" fill="#FBBC04"/><path d="M13.575 12.815a3.881 3.881 0 012.729 1.057l2.03-2.012a6.87 6.87 0 00-4.76-1.836 7.161 7.161 0 00-3.733 1.05 7.074 7.074 0 00-2.622 2.834l2.362 1.817c.563-1.67 2.138-2.91 3.994-2.91z" fill="#EA4335"/></svg>