<svg width="62" height="15" viewBox="0 0 62 15" fill="none" xmlns="http://www.w3.org/2000/svg"><path d="M23.01 3.246h-3.405a.483.483 0 00-.308.11.453.453 0 00-.16.275l-1.377 8.434a.263.263 0 00.065.221.282.282 0 00.216.096h1.626a.483.483 0 00.307-.11.453.453 0 00.16-.277l.372-2.274a.453.453 0 01.16-.277.483.483 0 01.307-.11h1.078c2.243 0 3.538-1.048 3.876-3.125.152-.91.006-1.623-.434-2.124-.484-.549-1.343-.84-2.483-.84zm.393 3.08c-.186 1.18-1.12 1.18-2.022 1.18h-.514l.36-2.204a.272.272 0 01.096-.165.29.29 0 01.185-.066h.235c.615 0 1.195 0 1.495.338.179.202.233.502.165.917zm9.787-.038h-1.631a.29.29 0 00-.184.066.271.271 0 00-.096.165l-.073.44-.114-.159c-.353-.495-1.14-.66-1.926-.66-1.802 0-3.34 1.318-3.64 3.167-.156.923.065 1.805.607 2.42.497.565 1.208.8 2.054.8 1.452 0 2.257-.9 2.257-.9l-.073.437a.264.264 0 00.065.22.283.283 0 00.215.097h1.47a.483.483 0 00.307-.11.453.453 0 00.16-.276l.881-5.39a.265.265 0 00-.064-.221.282.282 0 00-.215-.096zm-2.273 3.065c-.158.9-.897 1.504-1.84 1.504-.474 0-.852-.146-1.095-.424-.241-.277-.333-.67-.256-1.107.147-.892.899-1.516 1.827-1.516.463 0 .84.149 1.088.43.248.282.347.678.276 1.113zm10.958-3.065h-1.639a.489.489 0 00-.392.2l-2.26 3.216-.958-3.09a.459.459 0 00-.171-.236.486.486 0 00-.283-.09h-1.61a.293.293 0 00-.232.114.27.27 0 00-.038.249l1.805 5.116L34.4 14.08a.27.27 0 00.084.393c.045.026.096.04.148.04h1.637a.487.487 0 00.388-.196l5.45-7.599a.269.269 0 00-.085-.39.292.292 0 00-.147-.04z" fill="#253B80"/><path d="M47.3 3.246h-3.405a.483.483 0 00-.308.11.453.453 0 00-.16.275l-1.377 8.434a.263.263 0 00.065.22.283.283 0 00.215.097h1.748a.338.338 0 00.215-.077c.06-.05.1-.118.111-.194l.391-2.39a.453.453 0 01.16-.277.483.483 0 01.307-.11h1.078c2.244 0 3.538-1.048 3.876-3.125.153-.91.006-1.623-.434-2.124-.484-.549-1.342-.84-2.482-.84zm.393 3.08c-.185 1.18-1.12 1.18-2.022 1.18h-.514l.361-2.204a.27.27 0 01.096-.166.289.289 0 01.184-.065h.236c.614 0 1.195 0 1.494.338.18.202.233.502.165.917zm9.786-.038h-1.63a.288.288 0 00-.184.066.27.27 0 00-.095.165l-.072.44-.115-.159c-.353-.495-1.14-.66-1.926-.66-1.802 0-3.34 1.318-3.64 3.167-.155.923.065 1.805.607 2.42.498.565 1.208.8 2.054.8 1.452 0 2.257-.9 2.257-.9l-.073.437a.266.266 0 00.065.221.283.283 0 00.216.096h1.469a.483.483 0 00.307-.11.454.454 0 00.16-.276l.882-5.39a.264.264 0 00-.066-.221.283.283 0 00-.216-.096zm-2.273 3.065c-.156.9-.897 1.504-1.84 1.504-.472 0-.852-.146-1.095-.425-.24-.276-.331-.668-.256-1.106.148-.892.9-1.516 1.828-1.516.463 0 .84.149 1.087.43.25.282.348.678.276 1.113zm4.196-5.876l-1.398 8.588a.265.265 0 00.065.22.284.284 0 00.215.097h1.405a.468.468 0 00.468-.386l1.378-8.434a.265.265 0 00-.064-.22.283.283 0 00-.216-.097h-1.573a.29.29 0 00-.184.066.273.273 0 00-.096.166z" fill="#179BD7"/><path d="M3.618 14.02l.26-1.597-.58-.013H.528L2.453.621A.15.15 0 012.507.53.16.16 0 012.61.492h4.67c1.551 0 2.621.312 3.18.927.262.289.428.59.51.922.084.348.085.764.003 1.272l-.006.037v.325l.262.143c.2.098.38.23.53.39.224.247.369.56.43.933.063.382.042.837-.061 1.352-.12.592-.313 1.108-.574 1.53-.23.379-.54.707-.909.963a3.75 3.75 0 01-1.223.533 6.31 6.31 0 01-1.53.17h-.364c-.26 0-.512.091-.71.253-.198.164-.33.39-.37.639l-.028.144-.46 2.815-.021.104c-.006.032-.015.049-.029.06a.08.08 0 01-.048.017H3.618z" fill="#253B80"/><path d="M11.476 3.687c-.013.086-.03.174-.047.265-.616 3.054-2.723 4.11-5.415 4.11h-1.37c-.33 0-.607.23-.658.544l-.702 4.297-.198 1.218a.327.327 0 00.08.273.35.35 0 00.266.119h2.43a.58.58 0 00.578-.476l.024-.12.457-2.804.03-.154a.579.579 0 01.577-.477h.364c2.355 0 4.198-.924 4.737-3.596.225-1.116.108-2.048-.487-2.703a2.316 2.316 0 00-.665-.496z" fill="#179BD7"/><path d="M10.832 3.439a5.006 5.006 0 00-.599-.128c-.4-.06-.803-.088-1.208-.085h-3.66a.596.596 0 00-.38.135.559.559 0 00-.198.342l-.779 4.764-.022.139a.637.637 0 01.225-.39.68.68 0 01.433-.155h1.37c2.692 0 4.799-1.055 5.415-4.11.018-.09.034-.178.047-.264a3.345 3.345 0 00-.644-.248z" fill="#222D65"/><path d="M4.787 3.703a.559.559 0 01.197-.342.596.596 0 01.38-.135h3.661c.434 0 .839.027 1.208.085.25.038.496.095.737.17.182.058.35.127.506.206.184-1.129 0-1.897-.632-2.593C10.147.328 8.89 0 7.28 0H2.61a.66.66 0 00-.66.545L.004 12.455a.375.375 0 00.091.312.4.4 0 00.305.136h2.883l.724-4.436.78-4.764z" fill="#253B80"/></svg>