<svg width="284" height="312" viewBox="0 0 284 312" fill="none" xmlns="http://www.w3.org/2000/svg"><rect width="283.636" height="312" rx="24" fill="#EDEDED"/><path d="M52.56 239.818h1.411l2.824 4.753h.12l2.823-4.753h1.412l-3.679 5.986V250h-1.233v-4.196l-3.679-5.986zm12.468 10.341c-.69 0-1.295-.164-1.815-.492A3.342 3.342 0 0162 248.29c-.288-.59-.432-1.28-.432-2.068 0-.796.144-1.49.432-2.084a3.344 3.344 0 011.213-1.382c.52-.328 1.125-.492 1.815-.492s1.292.164 1.81.492c.52.329.924.789 1.213 1.382.291.594.437 1.288.437 2.084 0 .788-.146 1.478-.438 2.068a3.296 3.296 0 01-1.212 1.377c-.518.328-1.12.492-1.81.492zm0-1.054c.523 0 .954-.134 1.292-.403.339-.268.589-.621.751-1.059a4.05 4.05 0 00.244-1.421c0-.511-.081-.986-.244-1.427a2.405 2.405 0 00-.75-1.069c-.339-.272-.77-.408-1.293-.408-.524 0-.955.136-1.293.408a2.405 2.405 0 00-.75 1.069 4.095 4.095 0 00-.244 1.427c0 .51.081.984.243 1.421.163.438.413.791.751 1.059.338.269.77.403 1.293.403zm10.484-2.227v-4.514h1.173V250h-1.173v-1.293h-.08a2.508 2.508 0 01-.835.99c-.378.268-.855.402-1.432.402a2.55 2.55 0 01-1.273-.313 2.192 2.192 0 01-.875-.954c-.212-.428-.318-.966-.318-1.616v-4.852h1.173v4.772c0 .557.156 1.001.468 1.333.315.331.716.497 1.203.497a2 2 0 00.89-.224 1.94 1.94 0 00.765-.686c.21-.308.314-.701.314-1.178zm9.273-1.472V250H83.61v-10.182h1.174v3.739h.1c.178-.395.447-.708.804-.94.362-.235.842-.353 1.442-.353.52 0 .976.105 1.367.313.391.206.695.522.91.95.219.424.328.964.328 1.621V250h-1.173v-4.773c0-.606-.157-1.075-.472-1.407-.312-.334-.744-.502-1.298-.502-.384 0-.729.081-1.034.244-.302.162-.54.399-.716.711-.172.311-.258.689-.258 1.133zm9.765 4.773c-.484 0-.923-.091-1.317-.273a2.265 2.265 0 01-.94-.801c-.232-.351-.348-.775-.348-1.273 0-.437.086-.792.258-1.064.173-.275.403-.49.691-.646.289-.156.607-.272.955-.348.351-.079.704-.142 1.059-.189.464-.059.84-.104 1.129-.134.291-.033.503-.088.636-.164.136-.076.204-.209.204-.398v-.04c0-.49-.135-.871-.403-1.143-.265-.272-.668-.408-1.208-.408-.56 0-1 .123-1.318.368-.318.245-.541.507-.67.786l-1.114-.398c.198-.464.464-.825.795-1.084.335-.262.7-.444 1.094-.547a4.543 4.543 0 011.173-.159c.245 0 .527.03.845.09.322.056.632.174.93.353.302.179.552.449.75.81.2.361.299.845.299 1.452V250h-1.173v-1.034h-.06c-.08.166-.212.343-.398.532-.185.189-.432.35-.74.482-.309.133-.685.199-1.129.199zm.179-1.054c.464 0 .855-.091 1.173-.273.322-.183.564-.418.726-.706.166-.289.249-.592.249-.91v-1.074c-.05.06-.16.114-.328.164a5.521 5.521 0 01-.577.124c-.216.033-.426.063-.632.09-.202.023-.366.043-.492.059-.305.04-.59.105-.855.194a1.47 1.47 0 00-.636.393c-.16.172-.239.408-.239.706 0 .408.151.716.453.925.305.205.69.308 1.158.308zm11.853-6.761L103.758 250h-1.193l-2.824-7.636h1.273l2.108 6.085h.08l2.108-6.085h1.272zm4.897 7.795c-.736 0-1.37-.162-1.904-.487a3.28 3.28 0 01-1.228-1.372c-.285-.59-.427-1.276-.427-2.059 0-.782.142-1.471.427-2.068.289-.6.69-1.067 1.203-1.402.517-.338 1.121-.507 1.81-.507.398 0 .79.066 1.178.199.388.133.741.348 1.059.646.318.295.572.686.761 1.174.189.487.283 1.087.283 1.799v.498h-5.886v-1.015h4.693c0-.431-.086-.815-.258-1.153a1.95 1.95 0 00-.726-.8c-.312-.196-.68-.294-1.104-.294-.467 0-.872.116-1.213.348a2.298 2.298 0 00-.781.895 2.632 2.632 0 00-.273 1.183v.676c0 .577.099 1.066.298 1.467.202.398.482.701.84.91.358.205.774.308 1.248.308.309 0 .587-.043.836-.129.251-.09.468-.222.651-.398.182-.179.323-.401.422-.666l1.134.318c-.119.385-.32.723-.602 1.014a2.905 2.905 0 01-1.044.676c-.414.16-.88.239-1.397.239zm6.54-4.753V250h-1.173v-7.636h1.134v1.193h.099c.179-.388.451-.7.815-.935.365-.238.836-.358 1.412-.358.517 0 .97.106 1.357.318.388.209.69.527.905.955.216.424.323.961.323 1.611V250h-1.173v-4.773c0-.6-.156-1.067-.467-1.402-.312-.338-.739-.507-1.283-.507-.374 0-.709.081-1.004.244a1.736 1.736 0 00-.691.711c-.169.311-.254.689-.254 1.133zm8.471-5.588v.895c0 .272-.05.562-.15.87a3.577 3.577 0 01-.427.89 3.161 3.161 0 01-.676.746l-.637-.517a6.36 6.36 0 00.542-.93 2.37 2.37 0 00.234-1.039v-.915h1.114zm5.496 2.546v.994h-3.958v-.994h3.958zm-2.804-1.83h1.173v7.278c0 .332.048.581.144.746a.739.739 0 00.378.328c.156.053.32.08.492.08.129 0 .235-.007.318-.02l.199-.04.239 1.054a2.469 2.469 0 01-.875.139c-.332 0-.656-.071-.975-.213a1.938 1.938 0 01-.785-.652c-.206-.291-.308-.659-.308-1.103v-7.597zm14.158 6.344v-4.514h1.174V250h-1.174v-1.293h-.079a2.505 2.505 0 01-.835.99c-.378.268-.855.402-1.432.402a2.55 2.55 0 01-1.273-.313 2.192 2.192 0 01-.875-.954c-.212-.428-.318-.966-.318-1.616v-4.852h1.173v4.772c0 .557.156 1.001.468 1.333.314.331.715.497 1.203.497.291 0 .588-.075.89-.224.305-.149.56-.378.765-.686.209-.308.313-.701.313-1.178zm3.743 5.986v-10.5h1.133v1.213h.139c.087-.133.206-.302.358-.507a2.09 2.09 0 01.667-.557c.291-.166.686-.249 1.183-.249.643 0 1.21.161 1.7.482.491.322.873.778 1.149 1.368.275.59.412 1.286.412 2.088 0 .808-.137 1.509-.412 2.103-.276.59-.657 1.047-1.144 1.372-.487.321-1.049.482-1.685.482-.491 0-.884-.081-1.179-.244a2.182 2.182 0 01-.681-.561 7.881 7.881 0 01-.368-.527h-.099v4.037h-1.173zm1.153-6.682c0 .577.085 1.085.254 1.526.169.438.416.781.74 1.029.325.245.723.368 1.194.368.49 0 .899-.129 1.228-.388.331-.262.58-.613.745-1.054.169-.444.254-.938.254-1.481 0-.537-.083-1.021-.249-1.452a2.243 2.243 0 00-.74-1.029c-.329-.255-.741-.383-1.238-.383-.478 0-.879.121-1.203.363-.325.239-.571.573-.736 1.004-.166.428-.249.927-.249 1.497zm8.971-6.364V250h-1.173v-10.182h1.173zm5.672 10.341c-.69 0-1.295-.164-1.815-.492a3.338 3.338 0 01-1.213-1.377c-.289-.59-.433-1.28-.433-2.068 0-.796.144-1.49.433-2.084a3.34 3.34 0 011.213-1.382c.52-.328 1.125-.492 1.815-.492.689 0 1.292.164 1.809.492.521.329.925.789 1.213 1.382.292.594.438 1.288.438 2.084 0 .788-.146 1.478-.438 2.068a3.29 3.29 0 01-1.213 1.377c-.517.328-1.12.492-1.809.492zm0-1.054c.523 0 .954-.134 1.292-.403.338-.268.588-.621.751-1.059.162-.437.243-.911.243-1.421 0-.511-.081-.986-.243-1.427a2.411 2.411 0 00-.751-1.069c-.338-.272-.769-.408-1.292-.408-.524 0-.955.136-1.293.408a2.411 2.411 0 00-.751 1.069 4.104 4.104 0 00-.243 1.427c0 .51.081.984.243 1.421.163.438.413.791.751 1.059.338.269.769.403 1.293.403zm7.918 1.074c-.484 0-.923-.091-1.318-.273a2.266 2.266 0 01-.939-.801c-.232-.351-.348-.775-.348-1.273 0-.437.086-.792.258-1.064.173-.275.403-.49.691-.646.289-.156.607-.272.955-.348.351-.079.704-.142 1.059-.189.464-.059.84-.104 1.128-.134.292-.033.504-.088.637-.164.136-.076.204-.209.204-.398v-.04c0-.49-.135-.871-.403-1.143-.265-.272-.668-.408-1.208-.408-.56 0-.999.123-1.318.368-.318.245-.542.507-.671.786l-1.113-.398c.198-.464.464-.825.795-1.084a2.981 2.981 0 011.094-.547 4.54 4.54 0 011.173-.159c.245 0 .527.03.845.09.322.056.632.174.93.353.302.179.552.449.751.81.198.361.298.845.298 1.452V250h-1.173v-1.034h-.06c-.08.166-.212.343-.398.532a2.27 2.27 0 01-.741.482c-.308.133-.684.199-1.128.199zm.179-1.054c.464 0 .855-.091 1.173-.273a1.863 1.863 0 00.975-1.616v-1.074c-.05.06-.159.114-.329.164a5.455 5.455 0 01-.576.124c-.216.033-.426.063-.632.09-.202.023-.366.043-.492.059-.305.04-.59.105-.855.194a1.465 1.465 0 00-.636.393c-.159.172-.239.408-.239.706 0 .408.151.716.453.925.304.205.691.308 1.158.308zm8.766 1.034c-.636 0-1.198-.161-1.685-.482-.488-.325-.869-.782-1.144-1.372-.275-.594-.413-1.295-.413-2.103 0-.802.138-1.498.413-2.088.275-.59.658-1.046 1.149-1.368.49-.321 1.057-.482 1.7-.482.497 0 .89.083 1.178.249.292.162.514.348.666.557.156.205.277.374.363.507h.1v-3.759h1.173V250h-1.134v-1.173h-.139a7.523 7.523 0 01-.368.527 2.182 2.182 0 01-.681.561c-.295.163-.688.244-1.178.244zm.159-1.054c.471 0 .868-.123 1.193-.368.325-.248.572-.591.741-1.029.169-.441.254-.949.254-1.526 0-.57-.083-1.069-.249-1.497-.166-.431-.411-.765-.736-1.004-.325-.242-.726-.363-1.203-.363-.497 0-.911.128-1.243.383a2.296 2.296 0 00-.741 1.029 4.102 4.102 0 00-.243 1.452c0 .543.083 1.037.248 1.481.169.441.418.792.746 1.054.332.259.743.388 1.233.388zm9.274 1.054c-.735 0-1.37-.162-1.904-.487a3.28 3.28 0 01-1.228-1.372c-.285-.59-.427-1.276-.427-2.059 0-.782.142-1.471.427-2.068.289-.6.69-1.067 1.203-1.402.518-.338 1.121-.507 1.81-.507.398 0 .791.066 1.178.199.388.133.741.348 1.059.646.319.295.572.686.761 1.174.189.487.283 1.087.283 1.799v.498h-5.886v-1.015h4.693c0-.431-.086-.815-.258-1.153a1.943 1.943 0 00-.726-.8c-.312-.196-.68-.294-1.104-.294-.467 0-.872.116-1.213.348a2.288 2.288 0 00-.78.895 2.62 2.62 0 00-.274 1.183v.676c0 .577.1 1.066.298 1.467.203.398.483.701.841.91.358.205.773.308 1.247.308.309 0 .587-.043.836-.129.252-.09.469-.222.651-.398a1.82 1.82 0 00.423-.666l1.133.318c-.119.385-.32.723-.602 1.014a2.905 2.905 0 01-1.044.676c-.414.16-.88.239-1.397.239zm8.251 0c-.637 0-1.198-.161-1.686-.482-.487-.325-.868-.782-1.143-1.372-.275-.594-.413-1.295-.413-2.103 0-.802.138-1.498.413-2.088.275-.59.658-1.046 1.148-1.368.491-.321 1.058-.482 1.701-.482.497 0 .89.083 1.178.249.292.162.514.348.666.557.156.205.277.374.363.507h.099v-3.759h1.174V250h-1.134v-1.173h-.139a7.523 7.523 0 01-.368.527 2.182 2.182 0 01-.681.561c-.295.163-.688.244-1.178.244zm.159-1.054c.47 0 .868-.123 1.193-.368.325-.248.572-.591.741-1.029.169-.441.253-.949.253-1.526 0-.57-.083-1.069-.248-1.497-.166-.431-.411-.765-.736-1.004-.325-.242-.726-.363-1.203-.363-.497 0-.912.128-1.243.383a2.296 2.296 0 00-.741 1.029 4.102 4.102 0 00-.243 1.452c0 .543.082 1.037.248 1.481.169.441.418.792.746 1.054.331.259.742.388 1.233.388zm12.677 1.074c-.484 0-.923-.091-1.317-.273a2.263 2.263 0 01-.94-.801c-.232-.351-.348-.775-.348-1.273 0-.437.086-.792.259-1.064a1.82 1.82 0 01.691-.646c.288-.156.606-.272.954-.348.351-.079.704-.142 1.059-.189.464-.059.84-.104 1.129-.134.291-.033.503-.088.636-.164.136-.076.204-.209.204-.398v-.04c0-.49-.134-.871-.403-1.143-.265-.272-.668-.408-1.208-.408-.56 0-.999.123-1.317.368-.319.245-.542.507-.672.786l-1.113-.398c.199-.464.464-.825.795-1.084.335-.262.7-.444 1.094-.547a4.546 4.546 0 011.173-.159c.246 0 .527.03.845.09.322.056.632.174.93.353.302.179.552.449.751.81.199.361.298.845.298 1.452V250h-1.173v-1.034h-.06a2.042 2.042 0 01-.398.532c-.185.189-.432.35-.74.482-.309.133-.685.199-1.129.199zm.179-1.054c.464 0 .855-.091 1.173-.273a1.863 1.863 0 00.975-1.616v-1.074c-.05.06-.159.114-.328.164a5.534 5.534 0 01-.577.124c-.215.033-.426.063-.631.09-.203.023-.367.043-.493.059a4.55 4.55 0 00-.855.194 1.465 1.465 0 00-.636.393c-.159.172-.239.408-.239.706 0 .408.151.716.453.925.305.205.691.308 1.158.308zm7.056-3.719V250h-1.173v-7.636h1.133v1.193h.1c.179-.388.45-.7.815-.935.365-.238.835-.358 1.412-.358.517 0 .969.106 1.357.318.388.209.69.527.905.955.215.424.323.961.323 1.611V250h-1.173v-4.773c0-.6-.156-1.067-.467-1.402-.312-.338-.74-.507-1.283-.507-.375 0-.709.081-1.004.244a1.736 1.736 0 00-.691.711c-.17.311-.254.689-.254 1.133zm7.918 7.458a2.58 2.58 0 01-.532-.05 1.413 1.413 0 01-.323-.09l.299-1.034c.285.073.536.1.755.08a.909.909 0 00.582-.293c.172-.173.33-.453.472-.841l.219-.596-2.824-7.676h1.273l2.108 6.085h.079l2.108-6.085h1.273l-3.241 8.75a3.32 3.32 0 01-.542.979 2.036 2.036 0 01-.751.582c-.282.126-.6.189-.955.189zm-182.162 11.5L40.429 272h-1.193l-2.824-7.636h1.272l2.108 6.085h.08l2.108-6.085h1.273zM45.22 272v-7.636h1.174V272H45.22zm.597-8.909a.833.833 0 01-.592-.234.751.751 0 01-.243-.562c0-.218.08-.406.243-.561a.833.833 0 01.592-.234c.229 0 .424.078.587.234a.742.742 0 01.248.561.744.744 0 01-.248.562.817.817 0 01-.587.234zm6.029 9.068c-.636 0-1.198-.161-1.685-.482-.487-.325-.869-.782-1.144-1.372-.275-.594-.412-1.295-.412-2.103 0-.802.137-1.498.412-2.088.275-.59.658-1.046 1.149-1.368.49-.321 1.057-.482 1.7-.482.497 0 .89.083 1.178.249.292.162.514.348.666.557a8.7 8.7 0 01.363.507h.1v-3.759h1.173V272h-1.133v-1.173h-.14a7.55 7.55 0 01-.368.527c-.159.208-.386.396-.68.561-.296.163-.688.244-1.179.244zm.16-1.054c.47 0 .867-.123 1.192-.368.325-.248.572-.591.741-1.029.17-.441.254-.949.254-1.526 0-.57-.083-1.069-.249-1.497-.166-.431-.41-.765-.736-1.004-.325-.242-.726-.363-1.203-.363-.497 0-.911.128-1.243.383a2.293 2.293 0 00-.74 1.029 4.093 4.093 0 00-.244 1.452c0 .543.083 1.037.248 1.481.17.441.418.792.746 1.054.332.259.743.388 1.233.388zm9.274 1.054c-.736 0-1.371-.162-1.905-.487a3.273 3.273 0 01-1.228-1.372c-.285-.59-.427-1.276-.427-2.059 0-.782.142-1.471.427-2.068.289-.6.69-1.067 1.204-1.402.517-.338 1.12-.507 1.81-.507.397 0 .79.066 1.178.199.387.133.74.348 1.058.646.319.295.572.686.761 1.174.189.487.283 1.087.283 1.799v.498h-5.886v-1.015h4.693c0-.431-.086-.815-.258-1.153a1.944 1.944 0 00-.726-.8c-.312-.196-.68-.294-1.104-.294-.467 0-.872.116-1.213.348a2.291 2.291 0 00-.78.895 2.628 2.628 0 00-.274 1.183v.676c0 .577.1 1.066.299 1.467.202.398.482.701.84.91.358.205.774.308 1.248.308.308 0 .586-.043.835-.129a1.79 1.79 0 00.651-.398c.182-.179.323-.401.423-.666l1.133.318c-.12.385-.32.723-.601 1.014-.282.289-.63.514-1.044.676-.415.16-.88.239-1.397.239zm8.468 0c-.689 0-1.294-.164-1.814-.492a3.343 3.343 0 01-1.213-1.377c-.288-.59-.433-1.28-.433-2.068 0-.796.144-1.49.433-2.084a3.345 3.345 0 011.213-1.382c.52-.328 1.125-.492 1.814-.492.69 0 1.293.164 1.81.492.52.329.925.789 1.213 1.382.292.594.438 1.288.438 2.084 0 .788-.146 1.478-.438 2.068a3.297 3.297 0 01-1.213 1.377c-.517.328-1.12.492-1.81.492zm0-1.054c.524 0 .955-.134 1.293-.403a2.37 2.37 0 00.75-1.059 4.05 4.05 0 00.245-1.421c0-.511-.082-.986-.244-1.427a2.406 2.406 0 00-.75-1.069c-.339-.272-.77-.408-1.294-.408-.523 0-.954.136-1.292.408a2.406 2.406 0 00-.75 1.069 4.095 4.095 0 00-.244 1.427c0 .51.08.984.243 1.421.163.438.413.791.75 1.059.339.269.77.403 1.293.403zm11.08-5.031l-1.053.298a1.958 1.958 0 00-.293-.512 1.431 1.431 0 00-.517-.418c-.22-.109-.5-.164-.84-.164-.468 0-.857.108-1.169.324-.308.212-.462.482-.462.81 0 .292.106.522.318.691.212.169.543.31.994.423l1.134.278c.682.166 1.191.419 1.526.761.335.338.502.774.502 1.307 0 .438-.126.829-.378 1.173-.248.345-.596.617-1.044.816-.447.199-.968.298-1.56.298-.78 0-1.424-.169-1.935-.507-.51-.338-.833-.832-.97-1.482l1.114-.278c.106.411.307.719.602.925.298.205.688.308 1.168.308.547 0 .981-.116 1.303-.348.325-.235.487-.517.487-.845a.888.888 0 00-.278-.666c-.186-.183-.471-.319-.855-.408l-1.273-.298c-.7-.166-1.213-.423-1.541-.771-.325-.351-.488-.79-.488-1.317 0-.431.121-.812.363-1.144a2.473 2.473 0 011-.78 3.507 3.507 0 011.441-.284c.756 0 1.35.166 1.78.497.434.332.743.769.925 1.313zM89.244 272l-2.327-7.636h1.233l1.65 5.846h.08l1.63-5.846h1.254l1.61 5.826h.08l1.65-5.826h1.234L95.01 272h-1.154l-1.67-5.866h-.12L90.397 272h-1.153zm10.065 0v-7.636h1.173V272h-1.173zm.596-8.909a.833.833 0 01-.591-.234.751.751 0 01-.244-.562c0-.218.081-.406.244-.561a.833.833 0 01.591-.234c.229 0 .425.078.587.234a.741.741 0 01.249.561.744.744 0 01-.249.562.816.816 0 01-.587.234zm6.467 1.273v.994h-3.957v-.994h3.957zm-2.804-1.83h1.173v7.278c0 .332.048.581.145.746a.74.74 0 00.377.328c.156.053.32.08.493.08.129 0 .235-.007.318-.02l.199-.04.238 1.054c-.079.03-.19.06-.333.09a2.463 2.463 0 01-.542.049c-.331 0-.656-.071-.974-.213a1.94 1.94 0 01-.786-.652c-.205-.291-.308-.659-.308-1.103v-7.597zm6.326 4.872V272h-1.173v-10.182h1.173v3.739h.1c.179-.395.447-.708.805-.94.361-.235.842-.353 1.442-.353.52 0 .976.105 1.367.313.391.206.694.522.91.95.219.424.328.964.328 1.621V272h-1.173v-4.773c0-.606-.158-1.075-.473-1.407-.311-.334-.744-.502-1.297-.502-.385 0-.729.081-1.034.244a1.769 1.769 0 00-.716.711c-.173.311-.259.689-.259 1.133zm14.123 4.773c-.484 0-.923-.091-1.317-.273a2.263 2.263 0 01-.94-.801c-.232-.351-.348-.775-.348-1.273 0-.437.086-.792.259-1.064a1.82 1.82 0 01.691-.646c.288-.156.606-.272.954-.348.351-.079.704-.142 1.059-.189.464-.059.84-.104 1.129-.134.291-.033.503-.088.636-.164.136-.076.204-.209.204-.398v-.04c0-.49-.134-.871-.403-1.143-.265-.272-.668-.408-1.208-.408-.56 0-.999.123-1.317.368-.319.245-.542.507-.672.786l-1.113-.398c.199-.464.464-.825.795-1.084.335-.262.7-.444 1.094-.547a4.546 4.546 0 011.173-.159c.246 0 .527.03.845.09.322.056.632.174.93.353.302.179.552.449.751.81.199.361.298.845.298 1.452V272h-1.173v-1.034h-.06a2.042 2.042 0 01-.398.532c-.185.189-.432.35-.74.482-.309.133-.685.199-1.129.199zm.179-1.054c.464 0 .855-.091 1.173-.273a1.863 1.863 0 00.975-1.616v-1.074c-.05.06-.159.114-.328.164a5.534 5.534 0 01-.577.124c-.215.033-.426.063-.631.09-.203.023-.367.043-.493.059a4.55 4.55 0 00-.855.194 1.465 1.465 0 00-.636.393c-.159.172-.239.408-.239.706 0 .408.151.716.453.925.305.205.691.308 1.158.308zm6.042.875v-10.182h3.559c.71 0 1.295.123 1.755.368.461.242.804.568 1.029.979.226.408.339.861.339 1.358 0 .437-.078.798-.234 1.084-.153.285-.355.51-.607.676a2.778 2.778 0 01-.81.368v.099c.312.02.625.129.94.328.314.199.578.484.79.855.212.371.318.826.318 1.362 0 .511-.116.97-.348 1.378-.232.407-.598.73-1.098.969-.501.239-1.152.358-1.954.358h-3.679zm1.233-1.094h2.446c.805 0 1.377-.156 1.715-.467a1.5 1.5 0 00.512-1.144c0-.344-.088-.662-.263-.954a1.91 1.91 0 00-.751-.706c-.325-.179-.709-.269-1.154-.269h-2.505v3.54zm0-4.613h2.287c.371 0 .706-.073 1.004-.219.302-.146.54-.351.716-.617.179-.265.268-.576.268-.934 0-.448-.156-.827-.467-1.139-.312-.315-.805-.472-1.482-.472h-2.326v3.381zm8.133 5.707v-7.636h1.173V272h-1.173zm.597-8.909a.834.834 0 01-.592-.234.753.753 0 01-.244-.562.75.75 0 01.244-.561.834.834 0 01.592-.234c.228 0 .424.078.586.234a.741.741 0 01.249.561.744.744 0 01-.249.562.815.815 0 01-.586.234zm6.466 1.273v.994h-3.957v-.994h3.957zm-2.804-1.83h1.174v7.278c0 .332.048.581.144.746a.739.739 0 00.378.328c.156.053.32.08.492.08.129 0 .235-.007.318-.02l.199-.04.239 1.054a2.475 2.475 0 01-.875.139c-.332 0-.657-.071-.975-.213a1.931 1.931 0 01-.785-.652c-.206-.291-.309-.659-.309-1.103v-7.597zm10.103 12.33c-.199 0-.377-.017-.532-.05a1.41 1.41 0 01-.324-.09l.299-1.034c.285.073.537.1.755.08a.909.909 0 00.582-.293c.172-.173.33-.453.472-.841l.219-.596-2.824-7.676h1.273l2.108 6.085h.079l2.108-6.085h1.273l-3.241 8.75a3.32 3.32 0 01-.542.979 2.036 2.036 0 01-.751.582c-.282.126-.6.189-.954.189zm10.385-2.705c-.736 0-1.37-.162-1.904-.487a3.273 3.273 0 01-1.228-1.372c-.285-.59-.428-1.276-.428-2.059 0-.782.143-1.471.428-2.068.288-.6.689-1.067 1.203-1.402.517-.338 1.12-.507 1.81-.507.397 0 .79.066 1.178.199.388.133.741.348 1.059.646.318.295.572.686.761 1.174.189.487.283 1.087.283 1.799v.498h-5.886v-1.015h4.693c0-.431-.086-.815-.259-1.153a1.943 1.943 0 00-.726-.8c-.311-.196-.679-.294-1.103-.294-.468 0-.872.116-1.213.348a2.29 2.29 0 00-.781.895 2.632 2.632 0 00-.273 1.183v.676c0 .577.099 1.066.298 1.467.202.398.482.701.84.91.358.205.774.308 1.248.308.308 0 .587-.043.835-.129.252-.09.469-.222.652-.398.182-.179.323-.401.422-.666l1.134.318a2.51 2.51 0 01-.602 1.014c-.282.289-.63.514-1.044.676-.414.16-.88.239-1.397.239zm8.688-7.795v.994h-3.958v-.994h3.958zm-2.804-1.83h1.173v7.278c0 .332.048.581.144.746.1.163.226.272.378.328.156.053.32.08.492.08.13 0 .236-.007.319-.02l.198-.04.239 1.054a2.469 2.469 0 01-.875.139c-.331 0-.656-.071-.974-.213a1.94 1.94 0 01-.786-.652c-.205-.291-.308-.659-.308-1.103v-7.597zm5.844 9.546a.863.863 0 01-.632-.264.864.864 0 01-.263-.631c0-.246.088-.456.263-.632a.866.866 0 01.632-.263c.245 0 .456.088.631.263a.861.861 0 01.264.632.842.842 0 01-.125.447.923.923 0 01-.323.328.845.845 0 01-.447.12zm8.354-.08h-1.292l3.738-10.182h1.273L191.89 272h-1.293l-3.042-8.571h-.08L184.432 272zm.478-3.977h5.21v1.093h-5.21v-1.093zm11.71 4.136c-.636 0-1.198-.161-1.685-.482-.487-.325-.869-.782-1.144-1.372-.275-.594-.412-1.295-.412-2.103 0-.802.137-1.498.412-2.088.275-.59.658-1.046 1.149-1.368.49-.321 1.057-.482 1.7-.482.497 0 .89.083 1.178.249.292.162.514.348.667.557.155.205.276.374.362.507h.1v-3.759h1.173V272h-1.133v-1.173h-.14a7.456 7.456 0 01-.367.527c-.16.208-.387.396-.682.561-.295.163-.687.244-1.178.244zm.159-1.054c.471 0 .869-.123 1.193-.368.325-.248.572-.591.741-1.029.169-.441.254-.949.254-1.526 0-.57-.083-1.069-.249-1.497-.166-.431-.411-.765-.736-1.004-.324-.242-.725-.363-1.203-.363-.497 0-.911.128-1.243.383a2.287 2.287 0 00-.74 1.029 4.08 4.08 0 00-.244 1.452c0 .543.083 1.037.249 1.481.169.441.417.792.745 1.054.332.259.743.388 1.233.388zm8.956 1.054c-.636 0-1.198-.161-1.685-.482-.487-.325-.868-.782-1.143-1.372-.275-.594-.413-1.295-.413-2.103 0-.802.138-1.498.413-2.088.275-.59.658-1.046 1.148-1.368.491-.321 1.057-.482 1.7-.482.498 0 .89.083 1.179.249.291.162.513.348.666.557.156.205.277.374.363.507h.099v-3.759h1.173V272h-1.133v-1.173h-.139a7.523 7.523 0 01-.368.527 2.182 2.182 0 01-.681.561c-.295.163-.688.244-1.179.244zm.16-1.054c.47 0 .868-.123 1.193-.368.325-.248.571-.591.741-1.029.169-.441.253-.949.253-1.526 0-.57-.083-1.069-.249-1.497-.165-.431-.41-.765-.735-1.004-.325-.242-.726-.363-1.203-.363-.498 0-.912.128-1.243.383a2.296 2.296 0 00-.741 1.029 4.08 4.08 0 00-.244 1.452c0 .543.083 1.037.249 1.481.169.441.417.792.746 1.054.331.259.742.388 1.233.388zm11.603-3.699V272h-1.173v-7.636h1.133v1.193h.1c.179-.388.45-.7.815-.935.365-.238.835-.358 1.412-.358.517 0 .969.106 1.357.318.388.209.69.527.905.955.216.424.323.961.323 1.611V272h-1.173v-4.773c0-.6-.156-1.067-.467-1.402-.312-.338-.74-.507-1.283-.507-.375 0-.709.081-1.004.244a1.736 1.736 0 00-.691.711c-.169.311-.254.689-.254 1.133zm10.538 4.753c-.689 0-1.294-.164-1.814-.492a3.338 3.338 0 01-1.213-1.377c-.289-.59-.433-1.28-.433-2.068 0-.796.144-1.49.433-2.084a3.34 3.34 0 011.213-1.382c.52-.328 1.125-.492 1.814-.492.69 0 1.293.164 1.81.492.521.329.925.789 1.213 1.382.292.594.438 1.288.438 2.084 0 .788-.146 1.478-.438 2.068a3.29 3.29 0 01-1.213 1.377c-.517.328-1.12.492-1.81.492zm0-1.054c.524 0 .955-.134 1.293-.403.338-.268.588-.621.751-1.059.162-.437.243-.911.243-1.421 0-.511-.081-.986-.243-1.427a2.411 2.411 0 00-.751-1.069c-.338-.272-.769-.408-1.293-.408-.523 0-.954.136-1.292.408a2.411 2.411 0 00-.751 1.069 4.104 4.104 0 00-.243 1.427c0 .51.081.984.243 1.421.163.438.413.791.751 1.059.338.269.769.403 1.292.403zm7.142.895l-2.327-7.636h1.233l1.651 5.846h.079l1.631-5.846h1.253l1.611 5.826h.079l1.651-5.826h1.233L240.945 272h-1.153l-1.671-5.866h-.119L236.331 272h-1.153zm11.616-10.182l-.099 7.318h-1.154l-.099-7.318h1.352zm-.676 10.262a.859.859 0 01-.631-.264.86.86 0 01-.264-.631c0-.246.088-.456.264-.632a.862.862 0 01.631-.263c.245 0 .456.088.631.263a.861.861 0 01.264.632.85.85 0 01-.124.447.934.934 0 01-.324.328.845.845 0 01-.447.12z" fill="#A0A0A0"/><path d="M141.285 172a2 2 0 01-2-2v-28a2 2 0 012-2h1.43a2 2 0 012 2v28a2 2 0 01-2 2h-1.43zM128 158.715a2 2 0 01-2-2v-1.43a2 2 0 012-2h28a2 2 0 012 2v1.43a2 2 0 01-2 2h-28z" fill="#959595" fill-opacity=".57"/></svg>