<svg width="774" height="810" viewBox="0 0 774 810" fill="none" xmlns="http://www.w3.org/2000/svg"><g filter="url(#filter0_b_1657_2443)" fill-opacity=".2"><path d="M-622 12c0-6.627 5.373-12 12-12H762c6.627 0 12 5.373 12 12v786c0 6.627-5.373 12-12 12H-610c-6.627 0-12-5.373-12-12V12z" fill="#fff"/><path d="M-622 12c0-6.627 5.373-12 12-12H762c6.627 0 12 5.373 12 12v786c0 6.627-5.373 12-12 12H-610c-6.627 0-12-5.373-12-12V12z" fill="#000"/></g><defs><filter id="filter0_b_1657_2443" x="-672" y="-50" width="1496" height="910" filterUnits="userSpaceOnUse" color-interpolation-filters="sRGB"><feFlood flood-opacity="0" result="BackgroundImageFix"/><feGaussianBlur in="BackgroundImageFix" stdDeviation="25"/><feComposite in2="SourceAlpha" operator="in" result="effect1_backgroundBlur_1657_2443"/><feBlend in="SourceGraphic" in2="effect1_backgroundBlur_1657_2443" result="shape"/></filter></defs></svg>